<svg xmlns="http://www.w3.org/2000/svg" viewBox="0 0 448 512" fill="currentColor">
  <path d="M380.9 97.1C339-1.1 256.3-24.3 186.6 20.1c-58.4 38.8-76.3 117.7-47.8 179.6l-16 58.3a24 24 0 0 0 31.4 28l58-15.5c40.9 22.5 87.3 28 133.8 19 77.7-14.8 141.9-73.6 164.7-150.7C483.7 190.2 437 113 380.9 97.1zM314 266c-2.3 5.7-11.6 11-23.6 7.6-19.5-5.4-63.6-35.4-73.6-47.3-10-11.8-17.7-10.8-25 .6-7.3 11.4-28.1 45.5-34.3 54.7-6.2 9.2-12.4 9.8-18.4 3.9-5.6-5.5-20.7-23.6-32.5-35.6-12-12.1-10.6-19.6 3.8-32.4 4.2-3.8 12.6-12.9 17.5-18.1 5-5.4 6.6-9.2 9.9-15.2 3.4-6 1.7-11.3-.8-16.2-2.4-4.7-21.4-52.8-29.4-72-8-19.1-16.8-16.5-23.8-16.8-6.1-.2-13.2-.2-20.3-.2s-16.3 2.4-24.8 12c-8.5 9.8-32.5 31.7-32.5 77.6 0 45.9 33.3 90.4 37.9 96.6 4.6 6.1 65.4 99.3 158.3 139.6 92.9 40.3 94.9 33.9 112 31.8 17-2.1 55.4-22.6 63.5-44.5 8-21.9 8-40.6 5.6-44.4z"/>
</svg>
